# Max2Obj Version 4.0 Mar 10th, 2001
#
mtllib ./sample.mtl
g
# object (null) to come ...
#
v  205430.468750 0.000000 -445536.812500
v  205438.906250 0.000000 -445533.562500
v  205430.468750 80.752083 -445536.812500
v  205438.906250 80.752083 -445533.562500
v  205481.406250 0.000000 -445559.500000
v  205478.156250 0.000000 -445551.062500
v  205481.406250 80.752083 -445559.500000
v  205478.156250 80.752083 -445551.062500
v  205417.656250 80.752083 -445565.500000
v  205420.906250 80.752083 -445573.937500
v  205417.656250 0.000000 -445565.500000
v  205420.906250 0.000000 -445573.937500
v  205460.156250 80.752083 -445591.437500
v  205468.593750 80.752083 -445588.187500
v  205468.593750 0.000000 -445588.187500
v  205460.156250 0.000000 -445591.437500
v  205468.593750 80.752083 -445588.187500
v  205417.656250 80.752083 -445565.500000
v  205430.468750 80.752083 -445536.812500
v  205430.468750 80.752083 -445536.812500
v  205481.406250 80.752083 -445559.500000
v  205468.593750 80.752083 -445588.187500
v  205438.906250 80.752083 -445533.562500
v  205430.468750 80.752083 -445536.812500
v  205430.468750 0.000000 -445536.812500
v  205430.468750 0.000000 -445536.812500
v  205438.906250 0.000000 -445533.562500
v  205438.906250 80.752083 -445533.562500
v  205481.406250 80.752083 -445559.500000
v  205478.156250 80.752083 -445551.062500
v  205478.156250 0.000000 -445551.062500
v  205478.156250 0.000000 -445551.062500
v  205481.406250 0.000000 -445559.500000
v  205481.406250 80.752083 -445559.500000
v  205420.906250 0.000000 -445573.937500
v  205417.656250 0.000000 -445565.500000
v  205417.656250 80.752083 -445565.500000
v  205417.656250 80.752083 -445565.500000
v  205420.906250 80.752083 -445573.937500
v  205420.906250 0.000000 -445573.937500
v  205468.593750 0.000000 -445588.187500
v  205460.156250 0.000000 -445591.437500
v  205460.156250 80.752083 -445591.437500
v  205460.156250 80.752083 -445591.437500
v  205468.593750 80.752083 -445588.187500
v  205468.593750 0.000000 -445588.187500
v  205460.156250 80.752083 -445591.437500
v  205420.906250 80.752083 -445573.937500
v  205417.656250 80.752083 -445565.500000
v  205417.656250 80.752083 -445565.500000
v  205468.593750 80.752083 -445588.187500
v  205460.156250 80.752083 -445591.437500
v  205478.156250 80.752083 -445551.062500
v  205481.406250 80.752083 -445559.500000
v  205430.468750 80.752083 -445536.812500
v  205430.468750 80.752083 -445536.812500
v  205438.906250 80.752083 -445533.562500
v  205478.156250 80.752083 -445551.062500
# 58 vertices

vt  0.361287 0.015897 0.000000
vt  0.375634 0.015897 0.000000
vt  0.361287 0.919952 0.000000
vt  0.375634 0.919952 0.000000
vt  0.018550 0.015897 0.000000
vt  0.775671 0.015897 0.000000
vt  0.018550 0.919952 0.000000
vt  0.775671 0.919952 0.000000
vt  0.019032 0.919952 0.000000
vt  0.775276 0.919952 0.000000
vt  0.019032 0.015897 0.000000
vt  0.775276 0.015897 0.000000
vt  0.375239 0.919952 0.000000
vt  0.360805 0.919952 0.000000
vt  0.360805 0.015897 0.000000
vt  0.375239 0.015897 0.000000
vt  0.890322 0.945132 0.000000
vt  0.933499 0.849379 0.000000
vt  0.988095 0.873443 0.000000
vt  0.988095 0.873443 0.000000
vt  0.944918 0.969195 0.000000
vt  0.890322 0.945132 0.000000
vt  0.879540 0.920484 0.000000
vt  0.784065 0.920484 0.000000
vt  0.784065 0.014690 0.000000
vt  0.784065 0.014690 0.000000
vt  0.879540 0.014690 0.000000
vt  0.879540 0.920484 0.000000
vt  0.879540 0.920484 0.000000
vt  0.784065 0.920484 0.000000
vt  0.784065 0.014690 0.000000
vt  0.784065 0.014690 0.000000
vt  0.879540 0.014690 0.000000
vt  0.879540 0.920484 0.000000
vt  0.784065 0.014690 0.000000
vt  0.879540 0.014690 0.000000
vt  0.879540 0.920484 0.000000
vt  0.879540 0.920484 0.000000
vt  0.784065 0.920484 0.000000
vt  0.784065 0.014690 0.000000
vt  0.879540 0.014690 0.000000
vt  0.784065 0.014690 0.000000
vt  0.784065 0.920484 0.000000
vt  0.784065 0.920484 0.000000
vt  0.879540 0.920484 0.000000
vt  0.879540 0.014690 0.000000
vt  0.884137 0.929266 0.000000
vt  0.917441 0.855491 0.000000
vt  0.933499 0.849379 0.000000
vt  0.933499 0.849379 0.000000
vt  0.890322 0.945132 0.000000
vt  0.884137 0.929266 0.000000
vt  0.960976 0.963084 0.000000
vt  0.944918 0.969195 0.000000
vt  0.988095 0.873443 0.000000
vt  0.988095 0.873443 0.000000
vt  0.994280 0.889309 0.000000
vt  0.960976 0.963084 0.000000
# 58 texture vertices

vn  -0.913072 0.000000 0.407799
vn  0.407218 0.000000 0.913331
vn  -0.913072 0.000000 0.407799
vn  0.407218 0.000000 0.913331
vn  0.913072 0.000000 -0.407799
vn  0.407218 0.000000 0.913331
vn  0.913072 0.000000 -0.407799
vn  0.407218 0.000000 0.913331
vn  -0.913072 0.000000 0.407799
vn  -0.407218 0.000000 -0.913331
vn  -0.913072 0.000000 0.407799
vn  -0.407218 0.000000 -0.913331
vn  -0.407218 0.000000 -0.913331
vn  0.913072 0.000000 -0.407799
vn  0.913072 0.000000 -0.407799
vn  -0.407218 0.000000 -0.913331
vn  0.000000 1.000000 0.000000
vn  0.000000 1.000000 0.000000
vn  0.000000 1.000000 0.000000
vn  0.000000 1.000000 0.000000
vn  0.000000 1.000000 0.000000
vn  0.000000 1.000000 0.000000
vn  -0.359442 0.000000 0.933167
vn  -0.359442 0.000000 0.933167
vn  -0.359442 0.000000 0.933167
vn  -0.359442 0.000000 0.933167
vn  -0.359442 0.000000 0.933167
vn  -0.359442 0.000000 0.933167
vn  0.933167 0.000000 0.359442
vn  0.933167 0.000000 0.359442
vn  0.933167 0.000000 0.359442
vn  0.933167 0.000000 0.359442
vn  0.933167 0.000000 0.359442
vn  0.933167 0.000000 0.359442
vn  -0.933167 0.000000 -0.359442
vn  -0.933167 0.000000 -0.359442
vn  -0.933167 0.000000 -0.359442
vn  -0.933167 0.000000 -0.359442
vn  -0.933167 0.000000 -0.359442
vn  -0.933167 0.000000 -0.359442
vn  0.359442 0.000000 -0.933167
vn  0.359442 0.000000 -0.933167
vn  0.359442 0.000000 -0.933167
vn  0.359442 0.000000 -0.933167
vn  0.359442 0.000000 -0.933167
vn  0.359442 0.000000 -0.933167
vn  0.000000 1.000000 0.000000
vn  0.000000 1.000000 0.000000
vn  0.000000 1.000000 0.000000
vn  0.000000 1.000000 0.000000
vn  0.000000 1.000000 0.000000
vn  0.000000 1.000000 0.000000
vn  0.000000 1.000000 0.000000
vn  0.000000 1.000000 0.000000
vn  0.000000 1.000000 0.000000
vn  0.000000 1.000000 0.000000
vn  0.000000 1.000000 0.000000
vn  0.000000 1.000000 0.000000
# 58 vertex normals

g (null)
usemtl 01_-_Default
s 0
f 6/6/6 8/8/8 4/4/4
f 4/4/4 2/2/2 6/6/6
f 13/13/13 16/16/16 12/12/12
f 12/12/12 10/10/10 13/13/13
f 15/15/15 14/14/14 7/7/7
f 7/7/7 5/5/5 15/15/15
f 1/1/1 3/3/3 9/9/9
f 9/9/9 11/11/11 1/1/1
f 17/17/17 18/18/18 19/19/19
f 20/20/20 21/21/21 22/22/22
f 23/23/23 24/24/24 25/25/25
f 26/26/26 27/27/27 28/28/28
f 29/29/29 30/30/30 31/31/31
f 32/32/32 33/33/33 34/34/34
f 35/35/35 36/36/36 37/37/37
f 38/38/38 39/39/39 40/40/40
f 41/41/41 42/42/42 43/43/43
f 44/44/44 45/45/45 46/46/46
f 47/47/47 48/48/48 49/49/49
f 50/50/50 51/51/51 52/52/52
f 53/53/53 54/54/54 55/55/55
f 56/56/56 57/57/57 58/58/58
# 22 faces

g
